<?xml version="1.0" standalone="no"?>
<!DOCTYPE svg PUBLIC "-//W3C//DTD SVG 20010904//EN"
 "http://www.w3.org/TR/2001/REC-SVG-20010904/DTD/svg10.dtd">
<svg version="1.0" xmlns="http://www.w3.org/2000/svg"
 width="400.000000pt" height="400.000000pt" viewBox="0 0 400.000000 400.000000"
 preserveAspectRatio="xMidYMid meet">
<metadata>
Created by potrace 1.14, written by Peter Selinger 2001-2017
</metadata>
<g transform="translate(0.000000,400.000000) scale(0.100000,-0.100000)"
fill="#000000" stroke="none">
<path d="M1643 3472 c-106 -1 -193 -6 -194 -10 -1 -13 -7 -35 -44 -157 -20
-66 -38 -129 -40 -140 -3 -12 -14 -48 -25 -80 -11 -33 -21 -62 -22 -65 -2 -10
-31 -115 -68 -240 -10 -36 -27 -92 -36 -125 -10 -33 -19 -63 -20 -67 -1 -5 -2
-9 -4 -10 -2 -3 -5 -17 -14 -55 -2 -12 -10 -31 -16 -42 -6 -12 -8 -21 -5 -21
3 0 1 -8 -4 -19 -6 -10 -13 -33 -16 -50 -3 -18 -12 -51 -21 -74 -8 -23 -17
-53 -20 -67 -3 -14 -16 -61 -30 -105 -25 -77 -29 -91 -38 -135 -3 -11 -8 -25
-11 -30 -5 -9 -11 -28 -19 -67 -1 -7 -5 -16 -9 -19 -4 -4 -7 -17 -7 -29 0 -12
-3 -25 -7 -29 -4 -3 -8 -12 -9 -19 -1 -7 -7 -32 -14 -57 -7 -25 -12 -47 -12
-50 0 -3 -6 -21 -14 -40 -14 -39 -38 -125 -33 -125 1 0 -3 -9 -9 -21 -6 -11
-13 -32 -16 -45 -2 -13 -17 -62 -31 -109 -15 -47 -28 -92 -29 -100 -1 -8 -10
-38 -19 -66 -15 -44 -20 -62 -30 -109 -2 -5 -8 -23 -14 -40 -9 -25 -31 -98
-49 -167 -4 -15 34 -16 507 -16 l511 0 -6 43 c-10 63 -16 98 -21 115 -4 14 -9
45 -20 115 -2 17 -7 44 -10 60 -11 62 -17 101 -21 134 -3 19 -6 37 -9 40 -2 4
-7 34 -10 66 -4 33 -11 68 -16 77 -6 10 -5 19 1 23 6 4 7 12 3 18 -9 15 -16
52 -17 92 l-1 30 103 0 c56 -1 102 3 102 7 0 4 -19 7 -42 7 -86 -2 -141 1
-134 9 4 4 11 7 14 8 6 0 41 15 102 43 16 8 574 7 600 -1 21 -6 80 -37 111
-59 25 -18 25 -20 16 -76 -6 -32 -16 -61 -21 -65 -8 -5 -7 -8 1 -8 8 0 9 -10
3 -33 -10 -41 -29 -151 -35 -197 -2 -19 -4 -35 -5 -35 -1 0 -3 -16 -5 -35 -2
-19 -4 -35 -5 -35 -2 0 -4 -12 -19 -100 -13 -72 -19 -117 -26 -169 -2 -21 -7
-46 -10 -56 -5 -16 23 -17 505 -17 280 0 510 2 510 6 0 3 -25 92 -56 196 -30
105 -71 242 -89 305 -18 63 -40 134 -49 158 -8 23 -13 42 -11 42 2 0 -5 26
-16 58 -11 31 -22 66 -24 77 -2 11 -12 49 -23 85 -11 36 -36 119 -56 185 -19
66 -42 141 -50 168 -18 61 -18 60 -21 72 -2 6 -11 37 -21 70 -10 33 -19 65
-20 71 -1 7 -11 43 -23 80 -24 81 -74 250 -103 349 -11 39 -26 88 -33 110 -12
36 -33 113 -40 140 -1 6 -5 17 -8 25 -4 8 -20 62 -36 120 -50 178 -78 270 -84
276 -6 6 -651 10 -944 6z m548 -730 c1 -15 3 -43 4 -62 3 -34 14 -171 20 -255
2 -22 4 -40 4 -40 1 0 4 -25 6 -55 5 -64 12 -144 20 -215 10 -86 19 -244 16
-270 -1 -7 -87 -10 -243 -10 l-243 0 2 30 c3 52 14 198 19 245 2 25 6 74 9
110 3 36 9 94 14 130 5 36 9 83 10 105 1 22 5 63 7 90 3 28 7 79 9 115 4 53
10 97 14 107 1 0 75 1 166 2 l165 0 1 -27z"/>
<path d="M1806 1691 c-3 -5 5 -8 19 -7 14 0 25 4 25 9 0 10 -38 9 -44 -2z"/>
<path d="M1866 1691 c-6 -9 111 -7 120 2 3 3 -21 6 -55 6 -33 0 -63 -4 -65 -8z"/>
<path d="M2076 1689 c2 -4 13 -7 24 -6 23 2 17 10 -10 12 -10 1 -17 -2 -14 -6z"/>
<path d="M2234 1692 c4 -3 14 -7 22 -8 9 -1 13 0 10 4 -4 3 -14 7 -22 8 -9 1
-13 0 -10 -4z"/>
<path d="M2330 1689 c0 -5 5 -7 10 -4 6 3 10 8 10 11 0 2 -4 4 -10 4 -5 0 -10
-5 -10 -11z"/>
<path d="M2366 1692 c-3 -5 1 -9 9 -9 8 0 12 4 9 9 -3 4 -7 8 -9 8 -2 0 -6 -4
-9 -8z"/>
<path d="M2408 1683 c7 -3 16 -2 19 1 4 3 -2 6 -13 5 -11 0 -14 -3 -6 -6z"/>
<path d="M1743 974 c19 -67 -11 -61 279 -60 251 1 261 2 269 21 4 11 8 28 8
39 1 15 -4 17 -26 11 -44 -11 -62 -14 -122 -21 -96 -10 -131 -10 -131 -1 0 6
-5 6 -12 0 -7 -5 -22 -8 -33 -6 -11 1 -45 4 -75 7 -58 5 -87 9 -134 21 -24 7
-28 5 -23 -11z"/>
</g>
</svg>
